<svg width="30" height="30" viewBox="0 0 30 30" fill="none" xmlns="http://www.w3.org/2000/svg">
<g clip-path="url(#clip0_1_14260)">
<path d="M27.0762 12.8552C27.0762 8.50762 24.1822 5.34904 20.1645 5.34904C18.0137 5.34904 16.8573 6.13083 15.0049 7.92883C13.1429 6.13083 11.9853 5.33333 9.84291 5.33333C5.82521 5.33333 2.91675 8.49916 2.91675 12.8625C2.91675 14.6991 3.56562 16.427 4.76912 17.7876L14.4648 26.6773C14.762 26.9432 15.2466 26.9432 15.5354 26.6773L24.2922 18.7265L24.8238 18.242L25.0196 18.022L25.2226 17.8118C26.4268 16.4477 27.0889 14.6893 27.0834 12.8697" fill="#199A6A"/>
</g>
<defs>
<clipPath id="clip0_1_14260">
<rect width="29" height="29" fill="white" transform="translate(0.5 0.5)"/>
</clipPath>
</defs>
</svg>
