<svg width="21" height="24" viewBox="0 0 21 24" fill="none" xmlns="http://www.w3.org/2000/svg">
<path d="M11.1368 3.48885V2.00305C11.1368 0.604646 10.2628 0.0802459 9.03915 0.866846L8.33995 1.21645L4.1459 4.0995L3.6215 4.4491C2.3979 5.3231 2.3979 6.4593 3.6215 7.0711L4.0585 7.5081C5.19355 8.3821 7.1175 9.6057 8.25255 10.3049L8.86435 10.6545C9.91315 11.5285 10.8746 10.9167 10.8746 9.6057V7.6829C11.6567 7.67646 12.4322 7.82576 13.1561 8.1221C13.8799 8.41843 14.5375 8.85588 15.0906 9.40894C15.6436 9.96199 16.0811 10.6196 16.3774 11.3434C16.6737 12.0673 16.823 12.8428 16.8166 13.6249C16.8166 16.9461 14.1946 19.4807 10.8746 19.4807C7.37855 19.4807 4.75655 16.8587 4.75655 13.5375C4.75655 12.4887 3.88255 11.6159 2.7475 11.6159C1.5239 11.6159 0.649902 12.4899 0.649902 13.5375C0.649902 19.0437 5.19355 23.5 10.7872 23.5C16.2922 23.5 20.8359 19.13 20.8359 13.5375C20.9233 8.1199 16.3796 3.75105 10.8746 3.75105L11.1368 3.48885Z" fill="#C8720B"/>
</svg>
